<svg xmlns="http://www.w3.org/2000/svg" width="21" height="21" viewBox="0 0 21 21">
  <g fill="none" fill-rule="evenodd">
    <rect width="21" height="21" fill="#000" opacity="0"/>
    <path fill="#474747" fill-rule="nonzero" d="M14.6589844,8.70556641 L14.6589844,4.99365234 C14.6589844,3.43505859 13.3895508,2.165625 11.830957,2.165625 L9.13828125,2.165625 C7.5796875,2.165625 6.31025391,3.43505859 6.31025391,4.99365234 L6.31025391,8.70556641 L3.46376953,8.70556641 L3.46376953,18.8323242 L17.5341797,18.8323242 L17.5341797,8.70556641 L14.6589844,8.70556641 Z M7.25361328,4.99570312 C7.25361328,3.95595703 8.09853516,3.11103516 9.13828125,3.11103516 L11.830957,3.11103516 C12.8707031,3.11103516 13.715625,3.95595703 13.715625,4.99570312 L13.715625,8.70761719 L7.25361328,8.70761719 L7.25361328,4.99570312 Z M16.5928711,17.8889648 L4.40712891,17.8889648 L4.40712891,9.64892578 L16.5908203,9.64892578 L16.5908203,17.8889648 L16.5928711,17.8889648 Z M10.0283203,14.83125 L10.0283203,17.044043 L10.9716797,17.044043 L10.9716797,14.8291992 C11.7263672,14.6220703 12.2800781,13.9289063 12.2800781,13.1106445 C12.2800781,12.1283203 11.4802734,11.3285156 10.4979492,11.3285156 C9.515625,11.3285156 8.71582031,12.1283203 8.71582031,13.1106445 C8.71582031,13.930957 9.27363281,14.6241211 10.0283203,14.83125 Z M10.4979492,12.271875 C10.9614258,12.271875 11.3367187,12.6492187 11.3367187,13.1106445 C11.3367187,13.5720703 10.959375,13.9494141 10.4979492,13.9494141 C10.0344727,13.9494141 9.65917969,13.5720703 9.65917969,13.1106445 C9.65917969,12.6492187 10.0344727,12.271875 10.4979492,12.271875 Z"/>
  </g>
</svg>
